<svg xmlns="http://www.w3.org/2000/svg" viewBox="0 0 215.99 215.99">
  <circle fill="#ee4287" cx="107.99" cy="107.99" r="107.99" />
  <path fill="#fff" d="M158.2 113.09q-6.37-7.05-18.36-8.75v-.17c7-1.13 12.5-4 16.24-8.59a25.09 25.09 0 0 0 5.82-16.23c0-9.86-3.18-16.56-9.75-21.83s-16.44-7-29.81-7h-50.5v47h-29v18H122c6.23 0 10.91.44 14 2.93s4.67 5.71 4.67 10.47-1.56 8.82-4.67 11.37-7.79 4.23-14 4.23H94.84v-14h-23v32H124c13.26 0 23.4-3.46 30.43-8.84s10.33-13.33 10.33-23.08a25.72 25.72 0 0 0-6.56-17.51zm-39.1-15.62H94.84v-29h24.26c12.47 0 18.7 4.87 18.7 14.5s-6.23 14.5-18.7 14.5z" />
</svg>
